# xmcd
#
# Track frame offsets:
# 150
# 20182
# 38920
# 60757
# 79350
# 97728
# 116242
# 137408
# 156016
#
# Disc length: 2355 seconds
#
#
# Revision: 2
# Processed by: cddbd v1.5.2PL0 Copyright (c) Steve Scherf et al.
# Submitted via: FreeRIP 2.951 
#
DISCID=6a093109
DTITLE=Ilegales - Rebotando
DYEAR=1997
DGENRE=Latin
TTITLE0=El Taqui Taqui
TTITLE1=Como Un Trueno
TTITLE2=Sueño Contigo
TTITLE3=Rebotando
TTITLE4=Asi Que Muevelo
TTITLE5=Me Haces Falta
TTITLE6=El Lobo
TTITLE7=Solo Me Queda
TTITLE8=Dame De Eso
EXTD=
EXTT0=
EXTT1=
EXTT2=
EXTT3=
EXTT4=
EXTT5=
EXTT6=
EXTT7=
EXTT8=
PLAYORDER=
